<mxfile host="app.diagrams.net" modified="2020-10-18T16:14:44.416Z" agent="5.0 (Windows)" etag="JppTGJmXYUREAndbc5rZ" version="13.7.9" type="github">
  <diagram id="UJEbzssLffs4VadUiKzf" name="Page-1">
    <mxGraphModel dx="1178" dy="642" grid="1" gridSize="10" guides="1" tooltips="1" connect="1" arrows="1" fold="1" page="1" pageScale="1" pageWidth="827" pageHeight="1169" math="0" shadow="0">
      <root>
        <mxCell id="0" />
        <mxCell id="1" parent="0" />
        <mxCell id="JPgV4ovb-q-TWA_Wf5xH-22" style="edgeStyle=orthogonalEdgeStyle;orthogonalLoop=1;jettySize=auto;html=1;rounded=1;endArrow=none;endFill=0;" parent="1" source="JPgV4ovb-q-TWA_Wf5xH-1" target="JPgV4ovb-q-TWA_Wf5xH-2" edge="1">
          <mxGeometry relative="1" as="geometry">
            <Array as="points">
              <mxPoint x="620" y="410" />
              <mxPoint x="220" y="410" />
            </Array>
          </mxGeometry>
        </mxCell>
        <mxCell id="JPgV4ovb-q-TWA_Wf5xH-31" style="edgeStyle=orthogonalEdgeStyle;rounded=1;orthogonalLoop=1;jettySize=auto;html=1;endArrow=none;endFill=0;" parent="1" source="JPgV4ovb-q-TWA_Wf5xH-1" target="JPgV4ovb-q-TWA_Wf5xH-3" edge="1">
          <mxGeometry relative="1" as="geometry">
            <Array as="points">
              <mxPoint x="620" y="410" />
              <mxPoint x="380" y="410" />
            </Array>
          </mxGeometry>
        </mxCell>
        <mxCell id="JPgV4ovb-q-TWA_Wf5xH-32" style="edgeStyle=orthogonalEdgeStyle;rounded=1;orthogonalLoop=1;jettySize=auto;html=1;entryX=0.5;entryY=0;entryDx=0;entryDy=0;endArrow=none;endFill=0;" parent="1" source="JPgV4ovb-q-TWA_Wf5xH-1" target="JPgV4ovb-q-TWA_Wf5xH-4" edge="1">
          <mxGeometry relative="1" as="geometry">
            <Array as="points">
              <mxPoint x="620" y="410" />
              <mxPoint x="540" y="410" />
            </Array>
          </mxGeometry>
        </mxCell>
        <mxCell id="JPgV4ovb-q-TWA_Wf5xH-33" style="edgeStyle=orthogonalEdgeStyle;rounded=1;orthogonalLoop=1;jettySize=auto;html=1;entryX=0.5;entryY=0;entryDx=0;entryDy=0;endArrow=none;endFill=0;" parent="1" source="JPgV4ovb-q-TWA_Wf5xH-1" target="JPgV4ovb-q-TWA_Wf5xH-6" edge="1">
          <mxGeometry relative="1" as="geometry">
            <Array as="points">
              <mxPoint x="620" y="410" />
              <mxPoint x="700" y="410" />
            </Array>
          </mxGeometry>
        </mxCell>
        <mxCell id="JPgV4ovb-q-TWA_Wf5xH-34" style="edgeStyle=orthogonalEdgeStyle;rounded=1;orthogonalLoop=1;jettySize=auto;html=1;endArrow=none;endFill=0;" parent="1" source="JPgV4ovb-q-TWA_Wf5xH-1" target="JPgV4ovb-q-TWA_Wf5xH-5" edge="1">
          <mxGeometry relative="1" as="geometry">
            <Array as="points">
              <mxPoint x="620" y="410" />
              <mxPoint x="860" y="410" />
            </Array>
          </mxGeometry>
        </mxCell>
        <mxCell id="JPgV4ovb-q-TWA_Wf5xH-35" style="edgeStyle=orthogonalEdgeStyle;rounded=1;orthogonalLoop=1;jettySize=auto;html=1;endArrow=none;endFill=0;" parent="1" source="JPgV4ovb-q-TWA_Wf5xH-1" target="JPgV4ovb-q-TWA_Wf5xH-11" edge="1">
          <mxGeometry relative="1" as="geometry">
            <Array as="points">
              <mxPoint x="620" y="410" />
              <mxPoint x="1020" y="410" />
            </Array>
          </mxGeometry>
        </mxCell>
        <mxCell id="JPgV4ovb-q-TWA_Wf5xH-1" value="Sukurti programėlę" style="rounded=0;whiteSpace=wrap;html=1;" parent="1" vertex="1">
          <mxGeometry x="560" y="330" width="120" height="60" as="geometry" />
        </mxCell>
        <mxCell id="JPgV4ovb-q-TWA_Wf5xH-36" style="edgeStyle=orthogonalEdgeStyle;rounded=1;orthogonalLoop=1;jettySize=auto;html=1;endArrow=none;endFill=0;" parent="1" source="JPgV4ovb-q-TWA_Wf5xH-2" edge="1" target="JPgV4ovb-q-TWA_Wf5xH-9">
          <mxGeometry relative="1" as="geometry">
            <mxPoint x="170" y="600" as="targetPoint" />
            <Array as="points">
              <mxPoint x="170" y="600" />
            </Array>
          </mxGeometry>
        </mxCell>
        <mxCell id="JPgV4ovb-q-TWA_Wf5xH-2" value="Tyrimai" style="rounded=0;whiteSpace=wrap;html=1;" parent="1" vertex="1">
          <mxGeometry x="160" y="440" width="120" height="60" as="geometry" />
        </mxCell>
        <mxCell id="JPgV4ovb-q-TWA_Wf5xH-41" style="edgeStyle=orthogonalEdgeStyle;rounded=1;orthogonalLoop=1;jettySize=auto;html=1;endArrow=none;endFill=0;" parent="1" source="JPgV4ovb-q-TWA_Wf5xH-3" edge="1" target="JPgV4ovb-q-TWA_Wf5xH-12">
          <mxGeometry relative="1" as="geometry">
            <mxPoint x="330" y="600" as="targetPoint" />
            <Array as="points">
              <mxPoint x="330" y="600" />
            </Array>
          </mxGeometry>
        </mxCell>
        <mxCell id="JPgV4ovb-q-TWA_Wf5xH-3" value="UI dizainas" style="rounded=0;whiteSpace=wrap;html=1;" parent="1" vertex="1">
          <mxGeometry x="320" y="440" width="120" height="60" as="geometry" />
        </mxCell>
        <mxCell id="JPgV4ovb-q-TWA_Wf5xH-46" style="edgeStyle=orthogonalEdgeStyle;rounded=1;orthogonalLoop=1;jettySize=auto;html=1;endArrow=none;endFill=0;" parent="1" source="JPgV4ovb-q-TWA_Wf5xH-4" edge="1" target="JPgV4ovb-q-TWA_Wf5xH-15">
          <mxGeometry relative="1" as="geometry">
            <mxPoint x="490" y="600" as="targetPoint" />
            <Array as="points">
              <mxPoint x="490" y="600" />
            </Array>
          </mxGeometry>
        </mxCell>
        <mxCell id="JPgV4ovb-q-TWA_Wf5xH-4" value="Funkcijų dizainas" style="rounded=0;whiteSpace=wrap;html=1;" parent="1" vertex="1">
          <mxGeometry x="480" y="440" width="120" height="60" as="geometry" />
        </mxCell>
        <mxCell id="JPgV4ovb-q-TWA_Wf5xH-53" style="edgeStyle=orthogonalEdgeStyle;rounded=1;orthogonalLoop=1;jettySize=auto;html=1;endArrow=none;endFill=0;" parent="1" source="JPgV4ovb-q-TWA_Wf5xH-5" edge="1" target="JPgV4ovb-q-TWA_Wf5xH-20">
          <mxGeometry relative="1" as="geometry">
            <mxPoint x="810" y="590" as="targetPoint" />
            <Array as="points">
              <mxPoint x="810" y="600" />
            </Array>
          </mxGeometry>
        </mxCell>
        <mxCell id="JPgV4ovb-q-TWA_Wf5xH-5" value="Funkcionalumo įgyvendinimas" style="rounded=0;whiteSpace=wrap;html=1;" parent="1" vertex="1">
          <mxGeometry x="800" y="440" width="120" height="60" as="geometry" />
        </mxCell>
        <mxCell id="JPgV4ovb-q-TWA_Wf5xH-50" style="edgeStyle=orthogonalEdgeStyle;rounded=1;orthogonalLoop=1;jettySize=auto;html=1;endArrow=none;endFill=0;" parent="1" source="JPgV4ovb-q-TWA_Wf5xH-6" edge="1" target="JPgV4ovb-q-TWA_Wf5xH-21">
          <mxGeometry relative="1" as="geometry">
            <mxPoint x="650" y="590" as="targetPoint" />
            <Array as="points">
              <mxPoint x="650" y="600" />
            </Array>
          </mxGeometry>
        </mxCell>
        <mxCell id="JPgV4ovb-q-TWA_Wf5xH-6" value="UI įgyvendinimas" style="rounded=0;whiteSpace=wrap;html=1;" parent="1" vertex="1">
          <mxGeometry x="640" y="440" width="120" height="60" as="geometry" />
        </mxCell>
        <mxCell id="JPgV4ovb-q-TWA_Wf5xH-60" style="edgeStyle=orthogonalEdgeStyle;rounded=1;orthogonalLoop=1;jettySize=auto;html=1;endArrow=none;endFill=0;" parent="1" source="JPgV4ovb-q-TWA_Wf5xH-7" edge="1">
          <mxGeometry relative="1" as="geometry">
            <mxPoint x="169.9999999999999" y="550.0000000000001" as="targetPoint" />
          </mxGeometry>
        </mxCell>
        <mxCell id="JPgV4ovb-q-TWA_Wf5xH-7" value="1.1.1 Atlikti rinkos &lt;br&gt;analizę" style="text;html=1;align=center;verticalAlign=middle;resizable=0;points=[];autosize=1;" parent="1" vertex="1">
          <mxGeometry x="195" y="535" width="110" height="30" as="geometry" />
        </mxCell>
        <mxCell id="JPgV4ovb-q-TWA_Wf5xH-9" value="1.1.2 Atlikti &lt;br&gt;panašių&amp;nbsp;platformų &lt;br&gt;funkcionalumo analizę" style="text;html=1;align=center;verticalAlign=middle;resizable=0;points=[];autosize=1;" parent="1" vertex="1">
          <mxGeometry x="185" y="575" width="130" height="50" as="geometry" />
        </mxCell>
        <mxCell id="JPgV4ovb-q-TWA_Wf5xH-45" style="edgeStyle=orthogonalEdgeStyle;rounded=1;orthogonalLoop=1;jettySize=auto;html=1;endArrow=none;endFill=0;" parent="1" source="JPgV4ovb-q-TWA_Wf5xH-10" edge="1">
          <mxGeometry relative="1" as="geometry">
            <mxPoint x="330" y="550" as="targetPoint" />
          </mxGeometry>
        </mxCell>
        <mxCell id="JPgV4ovb-q-TWA_Wf5xH-10" value="1.2.1 Suprojektuoti &lt;br&gt;menių išvaizdas" style="text;html=1;align=center;verticalAlign=middle;resizable=0;points=[];autosize=1;" parent="1" vertex="1">
          <mxGeometry x="350" y="535" width="120" height="30" as="geometry" />
        </mxCell>
        <mxCell id="JPgV4ovb-q-TWA_Wf5xH-56" style="edgeStyle=orthogonalEdgeStyle;rounded=1;orthogonalLoop=1;jettySize=auto;html=1;endArrow=none;endFill=0;" parent="1" source="JPgV4ovb-q-TWA_Wf5xH-11" edge="1" target="JPgV4ovb-q-TWA_Wf5xH-19">
          <mxGeometry relative="1" as="geometry">
            <mxPoint x="970" y="580" as="targetPoint" />
            <Array as="points">
              <mxPoint x="970" y="600" />
            </Array>
          </mxGeometry>
        </mxCell>
        <mxCell id="JPgV4ovb-q-TWA_Wf5xH-11" value="Testavimas" style="rounded=0;whiteSpace=wrap;html=1;" parent="1" vertex="1">
          <mxGeometry x="960" y="440" width="120" height="60" as="geometry" />
        </mxCell>
        <mxCell id="JPgV4ovb-q-TWA_Wf5xH-12" value="1.2.2 Suprojektuoti &lt;br&gt;UI prototipą" style="text;html=1;align=center;verticalAlign=middle;resizable=0;points=[];autosize=1;" parent="1" vertex="1">
          <mxGeometry x="350" y="585" width="120" height="30" as="geometry" />
        </mxCell>
        <mxCell id="JPgV4ovb-q-TWA_Wf5xH-48" style="edgeStyle=orthogonalEdgeStyle;rounded=1;orthogonalLoop=1;jettySize=auto;html=1;endArrow=none;endFill=0;" parent="1" source="JPgV4ovb-q-TWA_Wf5xH-13" edge="1">
          <mxGeometry relative="1" as="geometry">
            <mxPoint x="490" y="550" as="targetPoint" />
          </mxGeometry>
        </mxCell>
        <mxCell id="JPgV4ovb-q-TWA_Wf5xH-13" value="1.3.1 Suprojektuoti &lt;br&gt;pagrindinės sistemos &lt;br&gt;funkcijas" style="text;html=1;align=center;verticalAlign=middle;resizable=0;points=[];autosize=1;" parent="1" vertex="1">
          <mxGeometry x="510" y="525" width="130" height="50" as="geometry" />
        </mxCell>
        <mxCell id="JPgV4ovb-q-TWA_Wf5xH-15" value="1.3.2 Suprojektuoti &lt;br&gt;sistemos klasių&lt;br&gt;&amp;nbsp;diagramą" style="text;html=1;align=center;verticalAlign=middle;resizable=0;points=[];autosize=1;" parent="1" vertex="1">
          <mxGeometry x="515" y="575" width="120" height="50" as="geometry" />
        </mxCell>
        <mxCell id="JPgV4ovb-q-TWA_Wf5xH-51" style="edgeStyle=orthogonalEdgeStyle;rounded=1;orthogonalLoop=1;jettySize=auto;html=1;endArrow=none;endFill=0;" parent="1" source="JPgV4ovb-q-TWA_Wf5xH-16" edge="1">
          <mxGeometry relative="1" as="geometry">
            <mxPoint x="650" y="550" as="targetPoint" />
          </mxGeometry>
        </mxCell>
        <mxCell id="JPgV4ovb-q-TWA_Wf5xH-16" value="1.4.1 Sukurti &lt;br&gt;veikiantį UI&lt;br&gt;&amp;nbsp;prototipą" style="text;html=1;align=center;verticalAlign=middle;resizable=0;points=[];autosize=1;" parent="1" vertex="1">
          <mxGeometry x="670" y="525" width="80" height="50" as="geometry" />
        </mxCell>
        <mxCell id="JPgV4ovb-q-TWA_Wf5xH-57" style="edgeStyle=orthogonalEdgeStyle;rounded=1;orthogonalLoop=1;jettySize=auto;html=1;endArrow=none;endFill=0;" parent="1" source="JPgV4ovb-q-TWA_Wf5xH-17" edge="1">
          <mxGeometry relative="1" as="geometry">
            <mxPoint x="970" y="550" as="targetPoint" />
          </mxGeometry>
        </mxCell>
        <mxCell id="JPgV4ovb-q-TWA_Wf5xH-17" value="1.6.1 Apžiurėti &lt;br&gt;kiekvieną UI langą" style="text;html=1;align=center;verticalAlign=middle;resizable=0;points=[];autosize=1;" parent="1" vertex="1">
          <mxGeometry x="990" y="535" width="110" height="30" as="geometry" />
        </mxCell>
        <mxCell id="JPgV4ovb-q-TWA_Wf5xH-54" style="edgeStyle=orthogonalEdgeStyle;rounded=1;orthogonalLoop=1;jettySize=auto;html=1;endArrow=none;endFill=0;" parent="1" source="JPgV4ovb-q-TWA_Wf5xH-18" edge="1">
          <mxGeometry relative="1" as="geometry">
            <mxPoint x="810" y="550" as="targetPoint" />
          </mxGeometry>
        </mxCell>
        <mxCell id="JPgV4ovb-q-TWA_Wf5xH-18" value="1.5.1 Sukurti &lt;br&gt;reikiamas funkcijas&lt;br&gt;kiekvienam UI langui&amp;nbsp;" style="text;html=1;align=center;verticalAlign=middle;resizable=0;points=[];autosize=1;" parent="1" vertex="1">
          <mxGeometry x="830" y="525" width="130" height="50" as="geometry" />
        </mxCell>
        <mxCell id="JPgV4ovb-q-TWA_Wf5xH-19" value="1.6.2 Pratestuoti &lt;br&gt;sistemos funkcionalumą" style="text;html=1;align=center;verticalAlign=middle;resizable=0;points=[];autosize=1;" parent="1" vertex="1">
          <mxGeometry x="990" y="585" width="140" height="30" as="geometry" />
        </mxCell>
        <mxCell id="JPgV4ovb-q-TWA_Wf5xH-20" value="1.5.2 Parašyti &lt;br&gt;unit testus &lt;br&gt;funkcijoms" style="text;html=1;align=center;verticalAlign=middle;resizable=0;points=[];autosize=1;" parent="1" vertex="1">
          <mxGeometry x="840" y="575" width="90" height="50" as="geometry" />
        </mxCell>
        <mxCell id="JPgV4ovb-q-TWA_Wf5xH-21" value="1.4.2 Pritaikyti &lt;br&gt;UI įvairioms&lt;br&gt;&amp;nbsp;platformoms" style="text;html=1;align=center;verticalAlign=middle;resizable=0;points=[];autosize=1;" parent="1" vertex="1">
          <mxGeometry x="670" y="575" width="90" height="50" as="geometry" />
        </mxCell>
        <mxCell id="JPgV4ovb-q-TWA_Wf5xH-24" value="1.0" style="text;html=1;align=center;verticalAlign=middle;resizable=0;points=[];autosize=1;" parent="1" vertex="1">
          <mxGeometry x="520" y="350" width="30" height="20" as="geometry" />
        </mxCell>
        <mxCell id="JPgV4ovb-q-TWA_Wf5xH-25" value="1.1" style="text;html=1;align=center;verticalAlign=middle;resizable=0;points=[];autosize=1;" parent="1" vertex="1">
          <mxGeometry x="180" y="410" width="30" height="20" as="geometry" />
        </mxCell>
        <mxCell id="JPgV4ovb-q-TWA_Wf5xH-26" value="1.2" style="text;html=1;align=center;verticalAlign=middle;resizable=0;points=[];autosize=1;" parent="1" vertex="1">
          <mxGeometry x="350" y="410" width="30" height="20" as="geometry" />
        </mxCell>
        <mxCell id="JPgV4ovb-q-TWA_Wf5xH-27" value="1.3" style="text;html=1;align=center;verticalAlign=middle;resizable=0;points=[];autosize=1;" parent="1" vertex="1">
          <mxGeometry x="510" y="410" width="30" height="20" as="geometry" />
        </mxCell>
        <mxCell id="JPgV4ovb-q-TWA_Wf5xH-28" value="1.4" style="text;html=1;align=center;verticalAlign=middle;resizable=0;points=[];autosize=1;" parent="1" vertex="1">
          <mxGeometry x="670" y="410" width="30" height="20" as="geometry" />
        </mxCell>
        <mxCell id="JPgV4ovb-q-TWA_Wf5xH-29" value="1.5" style="text;html=1;align=center;verticalAlign=middle;resizable=0;points=[];autosize=1;" parent="1" vertex="1">
          <mxGeometry x="827" y="410" width="30" height="20" as="geometry" />
        </mxCell>
        <mxCell id="JPgV4ovb-q-TWA_Wf5xH-30" value="1.6" style="text;html=1;align=center;verticalAlign=middle;resizable=0;points=[];autosize=1;" parent="1" vertex="1">
          <mxGeometry x="990" y="410" width="30" height="20" as="geometry" />
        </mxCell>
      </root>
    </mxGraphModel>
  </diagram>
</mxfile>
